<?xml version="1.0" encoding="utf-8"?>
<!-- Generator: Adobe Illustrator 19.2.1, SVG Export Plug-In . SVG Version: 6.00 Build 0)  -->
<svg version="1.1" xmlns="http://www.w3.org/2000/svg" xmlns:xlink="http://www.w3.org/1999/xlink" x="0px" y="0px"
	 viewBox="0 0 800 400" style="enable-background:new 0 0 800 400;" xml:space="preserve">
<style type="text/css">
	.st0{display:none;}
	.st1{fill:#212121;}
	.st2{fill:#FFFFFF;stroke:#212121;stroke-width:2;stroke-miterlimit:10;}
	.st3{fill:none;stroke:#212121;stroke-width:2;stroke-miterlimit:10;}
</style>
<g id="Layer_1" class="st0">
</g>
<g id="Layer_2">
	<g>
		<path class="st1" d="M145.5,219.4H34.6c-2.7,0-5-2.3-5-5V35.5c0-2.8,2.3-5,5-5h110.9c2.8,0,5,2.3,5,5v178.9
			C150.5,217.1,148.3,219.4,145.5,219.4z"/>
		<path class="st1" d="M145.5,368H34.6c-2.7,0-5-2.3-5-5V254.4c0-2.8,2.3-5,5-5h110.9c2.8,0,5,2.3,5,5V363
			C150.5,365.8,148.3,368,145.5,368z"/>
		<path class="st1" d="M463.6,368h-2.3c-32.6,0-59.3-26.7-59.3-59.3v0c0-32.6,26.7-59.3,59.3-59.3h2.3c32.6,0,59.3,26.7,59.3,59.3v0
			C522.9,341.3,496.2,368,463.6,368z"/>
		<path class="st1" d="M375.9,254.4V363c0,2.8-2.3,5-5,5H188.4c-2.8,0-5-2.3-5-5V254.4c0-2.8,2.3-5,5-5h182.5
			C373.6,249.4,375.9,251.7,375.9,254.4z"/>
		<path class="st1" d="M318.6,219.4H207.8c-2.8,0-5-2.3-5-5V35.5c0-2.8,2.3-5,5-5h110.9c2.8,0,5,2.3,5,5v178.9
			C323.6,217.1,321.4,219.4,318.6,219.4z"/>
		<path class="st1" d="M491.8,219.4H380.9c-2.8,0-5-2.3-5-5V35.5c0-2.8,2.3-5,5-5h110.9c2.8,0,5,2.3,5,5v178.9
			C496.8,217.1,494.5,219.4,491.8,219.4z"/>
		<path class="st1" d="M760,368H554c-2.8,0-5-2.3-5-5V35.5c0-2.8,2.3-5,5-5h206c2.8,0,5,2.3,5,5V363C765,365.8,762.8,368,760,368z"
			/>
		<line class="st2" x1="90.1" y1="125" x2="671" y2="125"/>
		<line class="st3" x1="90.1" y1="125" x2="90.1" y2="308.7"/>
		<line class="st3" x1="142" y1="211" x2="214" y2="278"/>
		<line class="st3" x1="462.4" y1="216.8" x2="462.4" y2="302"/>
		<line class="st3" x1="487" y1="294" x2="662" y2="200"/>
		<line class="st3" x1="446" y1="308.7" x2="279.6" y2="308.7"/>
		<line class="st3" x1="274" y1="162" x2="274" y2="316"/>
		<line class="st3" x1="258" y1="308.7" x2="126" y2="308.7"/>
	</g>
</g>
</svg>
